<svg width="32" height="32" viewBox="0 0 32 32" fill="none" xmlns="http://www.w3.org/2000/svg">
<path fill-rule="evenodd" clip-rule="evenodd" d="M2 15.9998C2 15.7346 2.10536 15.4802 2.29289 15.2927C2.48043 15.1052 2.73478 14.9998 3 14.9998H26.586L20.292 8.7078C20.1042 8.52003 19.9987 8.26535 19.9987 7.9998C19.9987 7.73425 20.1042 7.47957 20.292 7.2918C20.4798 7.10402 20.7344 6.99854 21 6.99854C21.2656 6.99854 21.5202 7.10402 21.708 7.2918L29.708 15.2918C29.8011 15.3847 29.875 15.495 29.9254 15.6165C29.9758 15.738 30.0018 15.8683 30.0018 15.9998C30.0018 16.1313 29.9758 16.2616 29.9254 16.3831C29.875 16.5046 29.8011 16.6149 29.708 16.7078L21.708 24.7078C21.5202 24.8956 21.2656 25.0011 21 25.0011C20.7344 25.0011 20.4798 24.8956 20.292 24.7078C20.1042 24.52 19.9987 24.2653 19.9987 23.9998C19.9987 23.7342 20.1042 23.4796 20.292 23.2918L26.586 16.9998H3C2.73478 16.9998 2.48043 16.8944 2.29289 16.7069C2.10536 16.5194 2 16.265 2 15.9998Z" fill="white"/>
</svg>
